<svg xmlns="http://www.w3.org/2000/svg" style="display:none">
  <symbol id="calendar" viewBox="0 0 64 64"><rect x="11" y="15" width="42" height="39" rx="5" fill="none" stroke="currentColor" stroke-width="5"/><path d="M20 8v14M44 8v14M11 27h42" stroke="currentColor" stroke-width="5"/><circle cx="22" cy="38" r="3" fill="currentColor"/><circle cx="32" cy="38" r="3" fill="currentColor"/><circle cx="42" cy="38" r="3" fill="currentColor"/><circle cx="22" cy="47" r="3" fill="currentColor"/><circle cx="32" cy="47" r="3" fill="currentColor"/></symbol>
  <symbol id="doc" viewBox="0 0 64 64"><path d="M18 6h22l11 11v41H18z" fill="none" stroke="currentColor" stroke-width="5"/><path d="M40 6v13h11M26 30h18M26 40h18M26 50h12" stroke="currentColor" stroke-width="4"/></symbol>
  <symbol id="clip" viewBox="0 0 64 64"><rect x="15" y="12" width="34" height="45" rx="5" fill="none" stroke="currentColor" stroke-width="5"/><path d="M25 12a7 7 0 0114 0h6v10H19V12zM24 34l7 7 12-14" fill="none" stroke="currentColor" stroke-width="5" stroke-linecap="round" stroke-linejoin="round"/></symbol>
  <symbol id="person" viewBox="0 0 64 64"><circle cx="32" cy="21" r="11" fill="none" stroke="currentColor" stroke-width="5"/><path d="M13 56c4-14 13-21 19-21s15 7 19 21" fill="none" stroke="currentColor" stroke-width="5" stroke-linecap="round"/></symbol>
  <symbol id="people" viewBox="0 0 64 64"><circle cx="24" cy="24" r="7" fill="none" stroke="currentColor" stroke-width="4"/><circle cx="42" cy="24" r="7" fill="none" stroke="currentColor" stroke-width="4"/><path d="M12 50c3-10 8-15 13-15s10 5 13 15M31 50c3-10 8-15 13-15s10 5 13 15" fill="none" stroke="currentColor" stroke-width="4" stroke-linecap="round"/></symbol>
  <symbol id="location" viewBox="0 0 64 64"><path d="M32 58S13 39 13 24a19 19 0 1138 0c0 15-19 34-19 34z" fill="none" stroke="currentColor" stroke-width="5"/><circle cx="32" cy="24" r="7" fill="currentColor"/></symbol>
  <symbol id="building" viewBox="0 0 64 64"><path d="M17 57V16h30v41M11 57h42M25 25h5M34 25h5M25 35h5M34 35h5M25 45h5M34 45h5" fill="none" stroke="currentColor" stroke-width="5" stroke-linecap="round"/></symbol>
  <symbol id="wallet" viewBox="0 0 64 64"><rect x="9" y="18" width="46" height="33" rx="5" fill="none" stroke="currentColor" stroke-width="5"/><path d="M44 30h12v11H44a6 6 0 010-11zM18 18l22-8 5 8" fill="none" stroke="currentColor" stroke-width="5"/><circle cx="47" cy="35" r="2.5" fill="currentColor"/></symbol>
  <symbol id="money" viewBox="0 0 64 64"><path d="M45 18a17 17 0 10-.2 28M21 25h22M21 38h22" fill="none" stroke="currentColor" stroke-width="5" stroke-linecap="round"/><path d="M51 20l-7 7 7 7" fill="none" stroke="currentColor" stroke-width="5" stroke-linecap="round" stroke-linejoin="round"/></symbol>
  <symbol id="box" viewBox="0 0 64 64"><path d="M32 6l23 13v26L32 58 9 45V19z" fill="none" stroke="currentColor" stroke-width="5"/><path d="M9 19l23 13 23-13M32 32v26" fill="none" stroke="currentColor" stroke-width="5"/></symbol>
</svg>
