<svg xmlns="http://www.w3.org/2000/svg" viewBox="0 0 160 160" role="img">
  <defs><linearGradient id="rg" x1="0" x2="1" y1="0" y2="1"><stop stop-color="#ffb169"/><stop offset=".55" stop-color="#ff6a00"/><stop offset="1" stop-color="#b74900"/></linearGradient></defs>
  <path d="M80 5l13 18 21-8 4 22 23 4-8 21 18 13-18 13 8 21-23 4-4 22-21-8-13 18-13-18-21 8-4-22-23-4 8-21L9 75l18-13-8-21 23-4 4-22 21 8z" fill="url(#rg)"/>
  <circle cx="80" cy="75" r="47" fill="none" stroke="#fff" stroke-width="5" opacity=".65"/>
  <path d="M55 74l17 18 37-43" fill="none" stroke="#fff" stroke-width="12" stroke-linecap="round" stroke-linejoin="round"/>
</svg>
