<svg xmlns="http://www.w3.org/2000/svg" viewBox="0 0 520 160" role="img" aria-label="Tager logo">
  <defs>
    <linearGradient id="teal" x1="0" x2="1" y1="0" y2="1">
      <stop offset="0" stop-color="#002b34"/>
      <stop offset="1" stop-color="#0a5d68"/>
    </linearGradient>
    <linearGradient id="orange" x1="0" x2="1" y1="0" y2="1">
      <stop offset="0" stop-color="#ff5a00"/>
      <stop offset="1" stop-color="#ff8d32"/>
    </linearGradient>
    <filter id="shadow" x="-15%" y="-15%" width="130%" height="130%">
      <feDropShadow dx="0" dy="3" stdDeviation="3" flood-color="#00303a" flood-opacity="0.18"/>
    </filter>
  </defs>
  <g filter="url(#shadow)">
    <path d="M78 32h116c16 0 21 23 5 29l-42 1v65c0 12-9 21-21 21h-26V62H72c-13 0-18-18-6-25 3-2 7-5 12-5z" fill="url(#teal)"/>
    <text x="150" y="119" font-family="Arial Black, Tahoma, sans-serif" font-size="92" font-weight="900" fill="url(#teal)" letter-spacing="-5">ager</text>
    <g transform="translate(206 70)">
      <circle cx="0" cy="0" r="24" fill="#0b4f59"/>
      <path d="M0-16l15 8v17L0 17-15 9V-8z" fill="#fff" opacity=".95"/>
      <path d="M0-16l15 8L0 1-15-8z" fill="#ff6a00"/>
      <path d="M15-8V9L0 17V1z" fill="#0b5f69"/>
      <path d="M-15-8V9L0 17V1z" fill="#efefef"/>
    </g>
    <g fill="url(#orange)">
      <rect x="14" y="54" width="60" height="8" rx="4"/>
      <rect x="26" y="73" width="48" height="8" rx="4"/>
      <rect x="38" y="92" width="36" height="8" rx="4"/>
    </g>
  </g>
  <text x="112" y="154" font-family="Tahoma, Arial, sans-serif" font-size="22" fill="#142c34" letter-spacing="2">Trade</text>
  <circle cx="189" cy="147" r="5" fill="#ff6a00"/>
  <text x="211" y="154" font-family="Tahoma, Arial, sans-serif" font-size="22" fill="#142c34" letter-spacing="2">Supply</text>
  <circle cx="305" cy="147" r="5" fill="#ff6a00"/>
  <text x="327" y="154" font-family="Tahoma, Arial, sans-serif" font-size="22" fill="#142c34" letter-spacing="2">Connect</text>
</svg>
